<svg width="22" height="22" viewBox="0 0 22 22" fill="none" xmlns="http://www.w3.org/2000/svg">
<path fill-rule="evenodd" clip-rule="evenodd" d="M6.25 6.25V5.9C6.25 4.07603 6.6102 2.60414 7.60717 1.60717C8.60414 0.610201 10.076 0.25 11.9 0.25H16.1C17.924 0.25 19.3959 0.610201 20.3928 1.60717C21.3898 2.60414 21.75 4.07603 21.75 5.9V10.1C21.75 11.924 21.3898 13.3959 20.3928 14.3928C19.3959 15.3898 17.924 15.75 16.1 15.75H15.75V16.1C15.75 17.924 15.3898 19.3959 14.3928 20.3928C13.3959 21.3898 11.924 21.75 10.1 21.75H5.9C4.07603 21.75 2.60414 21.3898 1.60717 20.3928C0.610201 19.3959 0.25 17.924 0.25 16.1V11.9C0.25 10.076 0.610201 8.60414 1.60717 7.60717C2.60414 6.6102 4.07603 6.25 5.9 6.25H6.25ZM7.75 5.9C7.75 4.22397 8.0898 3.24586 8.66783 2.66783C9.24586 2.0898 10.224 1.75 11.9 1.75H16.1C17.776 1.75 18.7541 2.0898 19.3322 2.66783C19.9102 3.24586 20.25 4.22397 20.25 5.9V10.1C20.25 11.776 19.9102 12.7541 19.3322 13.3322C18.7541 13.9102 17.776 14.25 16.1 14.25H15.75V11.9C15.75 10.076 15.3898 8.60414 14.3928 7.60717C13.3959 6.6102 11.924 6.25 10.1 6.25H7.75V5.9ZM5.9 7.75C4.22397 7.75 3.24586 8.0898 2.66783 8.66783C2.0898 9.24586 1.75 10.224 1.75 11.9V16.1C1.75 17.776 2.0898 18.7541 2.66783 19.3322C3.24586 19.9102 4.22397 20.25 5.9 20.25H10.1C11.776 20.25 12.7541 19.9102 13.3322 19.3322C13.9102 18.7541 14.25 17.776 14.25 16.1V11.9C14.25 10.224 13.9102 9.24586 13.3322 8.66783C12.7541 8.0898 11.776 7.75 10.1 7.75H5.9Z" fill="#9CA3AF"/>
</svg>
