<svg width="22" height="20" viewBox="0 0 22 20" fill="none" xmlns="http://www.w3.org/2000/svg">
<path fill-rule="evenodd" clip-rule="evenodd" d="M7.87416 7.08445C7.09734 8.09711 5.87491 8.75 4.5 8.75C2.15279 8.75 0.25 6.84721 0.25 4.5C0.25 2.15279 2.15279 0.25 4.5 0.25C6.84721 0.25 8.75 2.15279 8.75 4.5C8.75 4.92804 8.68672 5.3413 8.56901 5.73094L12.9983 9.04544L20.551 3.3993C20.8828 3.15129 21.3528 3.21918 21.6008 3.55094C21.8488 3.88269 21.7809 4.35269 21.4491 4.6007L14.2503 9.98232L21.4494 15.3695C21.7811 15.6177 21.8487 16.0877 21.6006 16.4194C21.3524 16.751 20.8824 16.8187 20.5507 16.5705L12.9979 10.9186L8.55913 14.2368C8.68318 14.6359 8.75 15.0601 8.75 15.5C8.75 17.8472 6.84721 19.75 4.5 19.75C2.15279 19.75 0.25 17.8472 0.25 15.5C0.25 13.1528 2.15279 11.25 4.5 11.25C5.86356 11.25 7.07714 11.8921 7.85482 12.8905L11.7459 9.98171L7.87416 7.08445ZM1.75 4.5C1.75 2.98122 2.98122 1.75 4.5 1.75C6.01878 1.75 7.25 2.98122 7.25 4.5C7.25 4.86363 7.17942 5.21077 7.05122 5.52848L7.04958 5.53067C6.98591 5.61576 6.94303 5.70996 6.92006 5.80718C6.45497 6.66641 5.54564 7.25 4.5 7.25C2.98122 7.25 1.75 6.01878 1.75 4.5ZM1.75 15.5C1.75 13.9812 2.98122 12.75 4.5 12.75C5.56867 12.75 6.49496 13.3596 6.95014 14.25C6.9646 14.2874 6.98224 14.3241 7.00309 14.3595C7.16165 14.707 7.25 15.0932 7.25 15.5C7.25 17.0188 6.01878 18.25 4.5 18.25C2.98122 18.25 1.75 17.0188 1.75 15.5Z" fill="#9CA3AF"/>
</svg>
