<svg width="20" height="22" viewBox="0 0 20 22" fill="none" xmlns="http://www.w3.org/2000/svg">
<path fill-rule="evenodd" clip-rule="evenodd" d="M5.98041 2.53579L5.76529 3.81675C4.83208 3.86712 3.8989 3.93943 2.96578 4.03367L0.926876 4.23356C0.514639 4.27397 0.213218 4.64092 0.253633 5.05316C0.294048 5.4654 0.660996 5.76682 1.07323 5.7264L3.11323 5.52641L3.11543 5.52618C5.07051 5.3287 7.02535 5.22998 8.98005 5.22998C12.2947 5.22998 15.62 5.39869 18.9261 5.72633C19.3383 5.76717 19.7056 5.46614 19.7464 5.05394C19.7872 4.64175 19.4862 4.27448 19.074 4.23364C17.4674 4.07442 15.856 3.95217 14.2431 3.868C14.242 3.8603 14.2408 3.85258 14.2395 3.84486L14.0199 2.54711L14.0105 2.48891C13.9448 2.08006 13.8463 1.46776 13.439 0.998446C12.9678 0.455399 12.2452 0.25 11.3101 0.25H8.69005C7.76615 0.25 7.04285 0.440117 6.56879 0.977691C6.16209 1.43887 6.06108 2.04899 5.99222 2.46487L5.98041 2.53579ZM7.45964 2.78456L7.29687 3.75377C7.85792 3.73791 8.41898 3.72998 8.98005 3.72998C10.2228 3.72998 11.4668 3.75334 12.7105 3.79954L12.5398 2.79069C12.4562 2.27767 12.4033 2.09352 12.3061 1.98155C12.2523 1.9196 12.0649 1.75 11.3101 1.75H8.69005C7.92396 1.75 7.74226 1.91488 7.69382 1.96981C7.6017 2.07427 7.54972 2.24976 7.45964 2.78456Z" fill="#9CA3AF"/>
<path d="M3.89856 8.0917C3.87188 7.67835 3.51516 7.36489 3.10181 7.39157C2.68846 7.41825 2.375 7.77497 2.40168 8.18833L3.05168 18.2583L3.05195 18.2624L3.05328 18.2814C3.07963 18.6577 3.1086 19.0714 3.18613 19.4564C3.26653 19.8555 3.40822 20.2768 3.69532 20.6506C4.29649 21.4333 5.31956 21.75 6.79012 21.75H13.2101C14.6807 21.75 15.7037 21.4333 16.3049 20.6506C16.592 20.2768 16.7337 19.8555 16.8141 19.4564C16.8916 19.0714 16.9206 18.6577 16.947 18.2814L16.9483 18.2624L16.9486 18.2583L17.5986 8.18833C17.6252 7.77497 17.3118 7.41825 16.8984 7.39157C16.4851 7.36489 16.1284 7.67835 16.1017 8.0917L15.452 18.1576L15.4518 18.1598C15.4236 18.5625 15.3997 18.8818 15.3436 19.1602C15.289 19.4314 15.2132 19.6095 15.1153 19.7369C14.9465 19.9567 14.5296 20.25 13.2101 20.25H6.79012C5.47068 20.25 5.05375 19.9567 4.88492 19.7369C4.78702 19.6095 4.71121 19.4314 4.65661 19.1602C4.60054 18.8818 4.57665 18.5624 4.54843 18.1596L3.89856 8.0917Z" fill="#9CA3AF"/>
<path d="M7.58013 15.5C7.58013 15.0858 7.91592 14.75 8.33013 14.75H11.6601C12.0743 14.75 12.4101 15.0858 12.4101 15.5C12.4101 15.9142 12.0743 16.25 11.6601 16.25H8.33013C7.91592 16.25 7.58013 15.9142 7.58013 15.5Z" fill="#9CA3AF"/>
<path d="M7.50005 10.75C7.08584 10.75 6.75005 11.0858 6.75005 11.5C6.75005 11.9142 7.08584 12.25 7.50005 12.25H12.5001C12.9143 12.25 13.2501 11.9142 13.2501 11.5C13.2501 11.0858 12.9143 10.75 12.5001 10.75H7.50005Z" fill="#9CA3AF"/>
</svg>
